<svg width="23" height="22" viewBox="0 0 23 22" fill="none" xmlns="http://www.w3.org/2000/svg">
<path d="M14.7237 2.08325C14.7237 1.41659 14.7237 0.749919 14.7237 0.083252C13.4783 0.083252 12.233 0.083252 10.9877 0.083252C7.94509 0.083252 4.90247 0.083252 1.85986 0.083252H0.859863V1.08325C0.859863 3.55021 0.859863 6.01717 0.859863 8.48413C0.859863 10.1957 0.859863 11.9073 0.859863 13.6188C0.859863 16.0255 0.859863 18.4322 0.859863 20.8388V21.8388H1.85986C8.44988 21.8388 15.0399 21.8388 21.6299 21.8388H22.6299V20.8388C22.6299 16.9123 22.6299 12.9858 22.6299 9.05936V8.68659L22.3859 8.40478C20.899 6.68752 19.4121 4.97027 17.9252 3.25302C17.11 2.31157 16.2948 1.37012 15.4797 0.428667C14.9757 0.865057 14.4717 1.30145 13.9677 1.73784C14.7829 2.67929 15.598 3.62074 16.4132 4.56219C17.9001 6.27944 19.387 7.9967 20.8739 9.71395L20.6299 9.05936C20.6299 12.9858 20.6299 16.9123 20.6299 20.8388L21.6299 19.8388C15.0399 19.8388 8.44988 19.8388 1.85986 19.8388L2.85986 20.8388C2.85986 18.4322 2.85986 16.0255 2.85986 13.6188C2.85986 11.9073 2.85986 10.1957 2.85986 8.48413C2.85986 6.01717 2.85986 3.55021 2.85986 1.08325L1.85986 2.08325C4.90247 2.08325 7.94509 2.08325 10.9877 2.08325C12.233 2.08325 13.4783 2.08325 14.7237 2.08325ZM14.7237 0.083252V2.08325L13.9677 1.73784L15.4797 0.428667L15.1806 0.083252H14.7237Z" fill="#796757"/>
<path d="M13.9207 2.29651L13.9207 9.28217L21.0111 9.28217" stroke="#796757" stroke-width="2" stroke-linecap="square"/>
</svg>
