<svg width="28" height="29" viewBox="0 0 28 29" fill="none" xmlns="http://www.w3.org/2000/svg">
<mask id="path-1-outside-1_2_1648" maskUnits="userSpaceOnUse" x="-0.534099" y="0.320874" width="29.0855" height="29.0855" fill="black">
<rect fill="white" x="-0.534099" y="0.320874" width="29.0855" height="29.0855"/>
<path d="M25.635 19.5052L9.69452 26.6701L7.89655 22.6699L9.19389 22.0868L5.27939 13.3778L3.95803 13.9717L2.16006 9.97161L18.1245 2.79594L20.5272 8.14146L16.1427 10.1122L15.538 8.76681L11.7421 10.473L12.8975 13.0436L16.2009 11.5588L17.7289 14.9583L14.4255 16.4432L15.6566 19.182L19.4525 17.4758L18.8478 16.1304L23.2323 14.1597L25.635 19.5052Z"/>
</mask>
<path d="M25.635 19.5052L9.69452 26.6701L7.89655 22.6699L9.19389 22.0868L5.27939 13.3778L3.95803 13.9717L2.16006 9.97161L18.1245 2.79594L20.5272 8.14146L16.1427 10.1122L15.538 8.76681L11.7421 10.473L12.8975 13.0436L16.2009 11.5588L17.7289 14.9583L14.4255 16.4432L15.6566 19.182L19.4525 17.4758L18.8478 16.1304L23.2323 14.1597L25.635 19.5052Z" fill="#B8DCD8"/>
<path d="M25.635 19.5052L26.2493 20.8719L27.616 20.2576L27.0017 18.8909L25.635 19.5052ZM9.69452 26.6701L8.32777 27.2844L8.94209 28.6511L10.3088 28.0368L9.69452 26.6701ZM7.89655 22.6699L7.28223 21.3032L5.91548 21.9175L6.5298 23.2843L7.89655 22.6699ZM9.19389 22.0868L9.80821 23.4536L11.175 22.8392L10.5606 21.4725L9.19389 22.0868ZM5.27939 13.3778L6.64614 12.7635L6.03182 11.3968L4.66507 12.0111L5.27939 13.3778ZM3.95803 13.9717L2.59128 14.5861L3.2056 15.9528L4.57235 15.3385L3.95803 13.9717ZM2.16006 9.97161L1.54574 8.60486L0.178996 9.21918L0.793317 10.5859L2.16006 9.97161ZM18.1246 2.79594L19.4913 2.18162L18.877 0.81487L17.5102 1.42919L18.1246 2.79594ZM20.5272 8.14146L21.1416 9.5082L22.5083 8.89388L21.894 7.52714L20.5272 8.14146ZM16.1427 10.1122L14.776 10.7265L15.3903 12.0933L16.757 11.4789L16.1427 10.1122ZM15.538 8.76681L16.9047 8.15249L16.2904 6.78575L14.9237 7.40007L15.538 8.76681ZM11.7421 10.473L11.1277 9.10625L9.761 9.72057L10.3753 11.0873L11.7421 10.473ZM12.8975 13.0436L11.5308 13.658L12.1451 15.0247L13.5118 14.4104L12.8975 13.0436ZM16.2009 11.5588L17.5677 10.9445L16.9534 9.57777L15.5866 10.1921L16.2009 11.5588ZM17.7289 14.9583L18.3433 16.3251L19.71 15.7108L19.0957 14.344L17.7289 14.9583ZM14.4255 16.4432L13.8112 15.0764L12.4445 15.6907L13.0588 17.0575L14.4255 16.4432ZM15.6566 19.182L14.2898 19.7963L14.9041 21.1631L16.2709 20.5487L15.6566 19.182ZM19.4525 17.4758L20.0668 18.8426L21.4335 18.2282L20.8192 16.8615L19.4525 17.4758ZM18.8478 16.1304L18.2334 14.7637L16.8667 15.378L17.481 16.7447L18.8478 16.1304ZM23.2323 14.1597L24.599 13.5454L23.9847 12.1786L22.618 12.7929L23.2323 14.1597ZM25.635 19.5052L25.0207 18.1384L9.0802 25.3033L9.69452 26.6701L10.3088 28.0368L26.2493 20.8719L25.635 19.5052ZM9.69452 26.6701L11.0613 26.0557L9.26329 22.0556L7.89655 22.6699L6.5298 23.2843L8.32777 27.2844L9.69452 26.6701ZM7.89655 22.6699L8.51087 24.0367L9.80821 23.4536L9.19389 22.0868L8.57957 20.7201L7.28223 21.3032L7.89655 22.6699ZM9.19389 22.0868L10.5606 21.4725L6.64614 12.7635L5.27939 13.3778L3.91265 13.9921L7.82714 22.7011L9.19389 22.0868ZM5.27939 13.3778L4.66507 12.0111L3.34371 12.605L3.95803 13.9717L4.57235 15.3385L5.89371 14.7446L5.27939 13.3778ZM3.95803 13.9717L5.32477 13.3574L3.52681 9.35729L2.16006 9.97161L0.793317 10.5859L2.59128 14.5861L3.95803 13.9717ZM2.16006 9.97161L2.77438 11.3384L18.7389 4.16268L18.1246 2.79594L17.5102 1.42919L1.54574 8.60486L2.16006 9.97161ZM18.1246 2.79594L16.7578 3.41026L19.1605 8.75578L20.5272 8.14146L21.894 7.52714L19.4913 2.18162L18.1246 2.79594ZM20.5272 8.14146L19.9129 6.77471L15.5284 8.74546L16.1427 10.1122L16.757 11.4789L21.1416 9.5082L20.5272 8.14146ZM16.1427 10.1122L17.5095 9.49788L16.9047 8.15249L15.538 8.76681L14.1712 9.38113L14.776 10.7265L16.1427 10.1122ZM15.538 8.76681L14.9237 7.40007L11.1277 9.10625L11.7421 10.473L12.3564 11.8397L16.1523 10.1336L15.538 8.76681ZM11.7421 10.473L10.3753 11.0873L11.5308 13.658L12.8975 13.0436L14.2643 12.4293L13.1088 9.85867L11.7421 10.473ZM12.8975 13.0436L13.5118 14.4104L16.8153 12.9256L16.2009 11.5588L15.5866 10.1921L12.2832 11.6769L12.8975 13.0436ZM16.2009 11.5588L14.8342 12.1732L16.3622 15.5727L17.7289 14.9583L19.0957 14.344L17.5677 10.9445L16.2009 11.5588ZM17.7289 14.9583L17.1146 13.5916L13.8112 15.0764L14.4255 16.4432L15.0398 17.8099L18.3433 16.3251L17.7289 14.9583ZM14.4255 16.4432L13.0588 17.0575L14.2898 19.7963L15.6566 19.182L17.0233 18.5677L15.7923 15.8288L14.4255 16.4432ZM15.6566 19.182L16.2709 20.5487L20.0668 18.8426L19.4525 17.4758L18.8382 16.1091L15.0422 17.8152L15.6566 19.182ZM19.4525 17.4758L20.8192 16.8615L20.2145 15.5161L18.8478 16.1304L17.481 16.7447L18.0857 18.0901L19.4525 17.4758ZM18.8478 16.1304L19.4621 17.4972L23.8466 15.5264L23.2323 14.1597L22.618 12.7929L18.2334 14.7637L18.8478 16.1304ZM23.2323 14.1597L21.8655 14.774L24.2682 20.1195L25.635 19.5052L27.0017 18.8909L24.599 13.5454L23.2323 14.1597Z" fill="#191919" mask="url(#path-1-outside-1_2_1648)"/>
</svg>
